<svg width="27" height="27" viewBox="0 0 27 27" fill="none" xmlns="http://www.w3.org/2000/svg">
<path d="M6.75 9C6.75 7.20979 7.46116 5.4929 8.72703 4.22703C9.9929 2.96116 11.7098 2.25 13.5 2.25C15.2902 2.25 17.0071 2.96116 18.273 4.22703C19.5388 5.4929 20.25 7.20979 20.25 9C20.25 16.875 23.625 19.125 23.625 19.125H3.375C3.375 19.125 6.75 16.875 6.75 9Z" stroke="white" stroke-width="2" stroke-linecap="round" stroke-linejoin="round"/>
<path d="M11.5875 23.625C11.7758 23.9675 12.0527 24.2531 12.3891 24.4521C12.7255 24.651 13.1092 24.756 13.5 24.756C13.8909 24.756 14.2745 24.651 14.611 24.4521C14.9474 24.2531 15.2242 23.9675 15.4125 23.625" stroke="white" stroke-width="2" stroke-linecap="round" stroke-linejoin="round"/>
<path d="M4.5 2.25C3.15 4.1625 2.25 6.4125 2.25 9" stroke="white" stroke-width="2" stroke-linecap="round" stroke-linejoin="round"/>
<path d="M24.75 9C24.75 6.4125 23.85 4.1625 22.5 2.25" stroke="white" stroke-width="2" stroke-linecap="round" stroke-linejoin="round"/>
</svg>
