<svg width="1000" height="1620" viewBox="0 0 1000 1620" fill="none" xmlns="http://www.w3.org/2000/svg">
<g clip-path="url(#clip0_22_5676)">
<path d="M382.844 569.479L400.526 551.807L424.677 558.276L431.146 582.411L413.464 600.078L389.318 593.615L382.844 569.479Z" fill="#FD532F" fill-opacity="0.4"/>
<path d="M746.854 365.255L764.526 347.583L788.682 354.047L795.151 378.188L777.474 395.859L753.323 389.391L746.854 365.255Z" fill="#FD532F" fill-opacity="0.4"/>
<path d="M88.7135 717.161L106.391 699.49L130.547 705.953L137.01 730.094L119.333 747.766L95.1875 741.292L88.7135 717.161Z" fill="#FD532F" fill-opacity="0.4"/>
<path d="M941.464 407.755L959.141 390.089L983.286 396.557L989.76 420.698L972.083 438.359L947.938 431.896L941.464 407.755Z" fill="#FD532F" fill-opacity="0.4"/>
<path d="M974.083 307.469L980.557 331.609L1000.01 336.812V292.01L991.766 289.797L974.083 307.469Z" fill="#FD532F" fill-opacity="0.4"/>
<path d="M905.188 679.38L922.87 661.714L947.021 668.172L953.49 692.312L935.807 709.984L911.661 703.516L905.188 679.38Z" fill="#FD532F" fill-opacity="0.4"/>
<path d="M599.844 701.365L617.526 683.693L641.677 690.167L648.146 714.307L630.464 731.974L606.318 725.505L599.844 701.365Z" fill="#FD532F" fill-opacity="0.4"/>
<path d="M852.797 601.328L861.932 592.208L874.401 595.547L877.745 608.011L868.615 617.13L856.135 613.792L852.797 601.328Z" fill="#FD532F" fill-opacity="0.4"/>
<path d="M591.885 584.286L601.021 575.161L613.49 578.5L616.833 590.963L607.703 600.088L595.234 596.75L591.885 584.286Z" fill="#FD532F" fill-opacity="0.4"/>
<path d="M618.708 259.026L627.839 249.901L640.307 253.24L643.656 265.703L634.526 274.828L622.047 271.49L618.708 259.026Z" fill="#FD532F" fill-opacity="0.4"/>
<path d="M515.891 755.969L525.021 746.844L537.49 750.182L540.833 762.646L531.703 771.771L519.234 768.432L515.891 755.969Z" fill="#FD532F" fill-opacity="0.4"/>
<path d="M541.469 395.125L550.604 386.01L563.073 389.349L566.417 401.812L557.286 410.938L544.818 407.599L541.469 395.125Z" fill="#FD532F" fill-opacity="0.4"/>
<path d="M-0.00521851 774.833L9.11978 765.708L21.5937 769.047L24.9375 781.521L15.8021 790.641L3.33332 787.302L-0.00521851 774.833Z" fill="#FD532F" fill-opacity="0.4"/>
<mask id="mask0_22_5676" style="mask-type:luminance" maskUnits="userSpaceOnUse" x="877" y="188" width="27" height="27">
<path d="M877.333 214.667H904V188.667H877.333V214.667Z" fill="white"/>
</mask>
<g mask="url(#mask0_22_5676)">
<path d="M878.255 197.891L887.38 188.76L899.854 192.109L903.193 204.573L894.063 213.693L881.594 210.354L878.255 197.891Z" fill="#FD532F" fill-opacity="0.4"/>
</g>
<path d="M198.187 768.432L207.312 759.307L219.792 762.646L223.13 775.109L214 784.234L201.531 780.896L198.187 768.432Z" fill="#FD532F" fill-opacity="0.4"/>
<path d="M955.604 749.37L964.734 740.24L977.203 743.583L980.547 756.047L971.417 765.172L958.948 761.833L955.604 749.37Z" fill="#FD532F" fill-opacity="0.4"/>
<path d="M458.812 682.505L467.943 673.38L480.411 676.719L483.75 689.182L474.625 698.307L462.156 694.969L458.812 682.505Z" fill="#FD532F" fill-opacity="0.4"/>
<path d="M827.182 743.49L876.547 694.156L858.495 626.761L791.052 608.672L741.693 658.011L759.755 725.406L827.182 743.49ZM873.193 693.255L826.286 740.13L762.214 722.974L745.047 658.938L791.948 612.031L856.016 629.193L873.193 693.255Z" fill="#FD532F" fill-opacity="0.4"/>
<mask id="mask1_22_5676" style="mask-type:luminance" maskUnits="userSpaceOnUse" x="821" y="777" width="107" height="35">
<path d="M821.333 811.667H928V777.333H821.333V811.667Z" fill="white"/>
</mask>
<g mask="url(#mask1_22_5676)">
<path d="M924.099 811.578L920.589 798.49L856.521 781.344L826.229 811.578H821.974L855.589 777.984L923.031 796.031L927.219 811.578H924.099Z" fill="#FD532F" fill-opacity="0.4"/>
</g>
<mask id="mask2_22_5676" style="mask-type:luminance" maskUnits="userSpaceOnUse" x="282" y="733" width="134" height="79">
<path d="M282.667 811.667H416V733.333H282.667V811.667Z" fill="white"/>
</mask>
<g mask="url(#mask2_22_5676)">
<path d="M412.51 811.578L397.047 753.979L345.464 740.167L343.5 739.641L332.974 736.818L286.099 783.698L293.573 811.578H290.469L282.745 782.797L332.104 733.458L399.531 751.521L415.661 811.578H412.51Z" fill="#FD532F" fill-opacity="0.4"/>
</g>
<path d="M503.979 685.312L553.339 635.979L535.276 568.583L467.849 550.521L418.484 599.859L436.557 667.255L503.979 685.312ZM549.984 635.078L503.083 681.953L439.031 664.797L421.87 600.76L468.771 553.88L532.818 571.047L549.984 635.078Z" fill="#FD532F" fill-opacity="0.4"/>
<path d="M525.203 808.891L484.198 797.911L473.198 808.891H468.938L480.036 797.812L482.495 795.359L483.307 794.547L536.844 808.891H525.203Z" fill="#FD532F" fill-opacity="0.4"/>
<path d="M883.37 381.333L932.729 332L914.667 264.604L847.203 246.536L797.844 295.87L815.911 363.266L883.37 381.333ZM929.375 331.099L882.469 377.974L818.401 360.812L801.234 296.776L848.104 249.896L912.172 267.052L929.375 331.099Z" fill="#FD532F" fill-opacity="0.4"/>
<path d="M365.474 654.979L392.594 662.24L399.859 689.344L380.01 709.188L352.891 701.922L345.625 674.818L365.474 654.979ZM353.88 700.932L379.646 707.833L398.505 688.984L391.604 663.229L365.839 656.328L346.974 675.188L353.88 700.932Z" fill="#FD532F" fill-opacity="0.4"/>
<path d="M345.786 676.969L365.635 657.13L358.365 630.031L331.26 622.781L311.406 642.625L318.703 669.714L345.786 676.969ZM364.286 656.771L345.464 675.583L319.698 668.688L312.76 642.938L331.615 624.125L357.38 631.026L364.286 656.771Z" fill="#FD532F" fill-opacity="0.4"/>
<path d="M1000.01 596.922V601.182L978.083 623.094L978.401 624.276L995.255 687.13L1000.01 688.396V691.521L992.792 689.589L975.943 626.735L975.042 623.375L974.724 622.193L1000.01 596.922Z" fill="#FD532F" fill-opacity="0.4"/>
<path d="M938.99 492.761L1000.01 509.094V512.214L939.891 496.089L892.99 542.974L910.156 607.005L974.229 624.162L975.042 623.349L1000.01 598.396V602.656L978.401 624.25L975.13 627.521L907.698 609.458L889.625 542.073L938.99 492.761Z" fill="#FD532F" fill-opacity="0.4"/>
<path d="M713.297 553.62L762.656 504.286L744.594 436.89L677.167 418.828L627.802 468.167L645.865 535.562L713.297 553.62ZM759.302 503.385L712.396 550.26L648.328 533.104L631.156 469.068L678.068 422.187L742.156 439.364L759.302 503.385Z" fill="#FD532F" fill-opacity="0.4"/>
<path d="M827.182 523.453L876.547 474.12L858.495 406.724L791.068 388.661L741.693 438.021L759.755 505.411L827.182 523.453ZM873.193 473.219L826.286 520.094L762.214 502.932L745.047 438.901L791.948 392.021L856.016 409.182L873.193 473.219Z" fill="#FD532F" fill-opacity="0.4"/>
<mask id="mask3_22_5676" style="mask-type:luminance" maskUnits="userSpaceOnUse" x="44" y="359" width="848" height="453">
<path d="M44 811.667H892V360H44V811.667Z" fill="white"/>
</mask>
<g mask="url(#mask3_22_5676)">
<mask id="mask4_22_5676" style="mask-type:luminance" maskUnits="userSpaceOnUse" x="-100" y="-100" width="1200" height="1200">
<path d="M1100 1100H-100V-100H1100V1100Z" fill="black" fill-opacity="0.32"/>
</mask>
<g mask="url(#mask4_22_5676)">
<mask id="mask5_22_5676" style="mask-type:luminance" maskUnits="userSpaceOnUse" x="44" y="360" width="848" height="452">
<path d="M892 812H44V360H892V812Z" fill="white"/>
</mask>
<g mask="url(#mask5_22_5676)">
<path d="M833.255 773.724L773.427 757.708L757.661 698.906L698.828 683.151L682.938 623.864L682.802 623.375L726.594 579.609L786.422 595.625L802.182 654.427L861.016 670.182L876.911 729.474L877.042 729.968L833.255 773.724ZM784.99 597.062L727.135 581.573L684.786 623.896L700.286 681.718L758.141 697.213L800.49 654.885L784.99 597.062ZM859.604 671.64L801.75 656.146L780.573 677.312L759.396 698.484L774.901 756.302L832.75 771.797L875.099 729.468L859.604 671.64Z" fill="#FD532F" fill-opacity="0.6"/>
<mask id="mask6_22_5676" style="mask-type:luminance" maskUnits="userSpaceOnUse" x="669" y="741" width="119" height="71">
<path d="M669.333 811.667H788V741.333H669.333V811.667Z" fill="white"/>
</mask>
<g mask="url(#mask6_22_5676)">
<path d="M785.755 811.578L771.781 759.385L713.927 743.896L671.578 786.224L678.339 811.578H676.526L669.734 786.188L669.609 785.698L713.391 741.938L773.219 757.958L787.578 811.578H785.755Z" fill="#FD532F" fill-opacity="0.6"/>
</g>
<path d="M699.854 481.021L640.026 465L624.125 405.708L624 405.219L667.781 361.427L727.609 377.443L743.505 436.734L743.635 437.219L699.854 481.021ZM726.177 378.896L668.323 363.401L625.974 405.729L641.458 463.552L699.307 479.042L741.656 436.713L726.177 378.896Z" fill="#FD532F" fill-opacity="0.6"/>
<mask id="mask7_22_5676" style="mask-type:luminance" maskUnits="userSpaceOnUse" x="770" y="453" width="121" height="121">
<path d="M770.667 573.333H890.88V453.333H770.667V573.333Z" fill="white"/>
</mask>
<g mask="url(#mask7_22_5676)">
<path d="M846.943 573.151L787.115 557.135L771.234 497.818L771.099 497.333L814.885 453.568L874.714 469.583L890.604 528.875L890.734 529.364L846.943 573.151ZM873.266 471.026L815.417 455.536L773.063 497.864L788.583 555.703L846.396 571.198L888.745 528.87L873.266 471.026Z" fill="#FD532F" fill-opacity="0.6"/>
</g>
<path d="M665.167 605.718L606.333 589.963L563.984 632.291L579.609 690.599L579.745 691.093L535.964 734.849L476.135 718.833L460.307 659.791L401.229 643.974L385.339 584.682L385.203 584.192L428.995 540.432L488.312 556.312L531.135 513.51L589.969 529.265L633.094 486.172L692.922 502.187L708.818 561.474L708.948 561.963L665.167 605.718ZM477.615 717.396L535.474 732.89L577.823 690.562L562.365 632.823L504.422 617.307L462.135 659.573L477.615 717.396ZM487.417 557.875L429.562 542.38L387.214 584.708L402.714 642.531L460.542 658.021L502.891 615.692L487.417 557.875ZM589.594 530.958L531.745 515.463L489.391 557.791L504.854 615.526L562.719 631.047L605.068 588.781L589.594 530.958ZM691.552 503.614L633.698 488.119L591.349 530.448L606.849 588.271L664.703 603.76L707.052 561.432L691.552 503.614Z" fill="#FD532F" fill-opacity="0.6"/>
<mask id="mask8_22_5676" style="mask-type:luminance" maskUnits="userSpaceOnUse" x="45" y="721" width="317" height="91">
<path d="M45.3333 811.667H361.333V721.333H45.3333V811.667Z" fill="white"/>
</mask>
<g mask="url(#mask8_22_5676)">
<path d="M346.839 811.578H344.354L358.911 797.026L343.526 739.641L343.411 739.203L329.969 735.604L285.599 723.714L243.25 766.036L255.417 811.578H253.536L241.438 766.562L183.583 751.057L141.234 793.385L146.135 811.578H144.167L139.312 793.438L81.4583 777.984L47.8489 811.578H45.3698L80.9375 776.016L140.26 791.906L183.089 749.094L241.911 764.849L285.036 721.75L331.422 734.167L344.865 737.766L345.536 740.156L360.792 797.052L360.922 797.542L346.839 811.578Z" fill="#FD532F" fill-opacity="0.6"/>
</g>
<mask id="mask9_22_5676" style="mask-type:luminance" maskUnits="userSpaceOnUse" x="421" y="737" width="122" height="75">
<path d="M421.333 811.667H542.667V737.333H421.333V811.667Z" fill="white"/>
</mask>
<g mask="url(#mask9_22_5676)">
<path d="M539.729 811.578L524.839 756.036L466.99 740.542L424.635 782.87L432.307 811.578H430.49L422.781 782.833L422.656 782.344L466.437 738.589L526.266 754.604L541.542 811.578H539.729Z" fill="#FD532F" fill-opacity="0.6"/>
</g>
</g>
</g>
</g>
</g>
<g clip-path="url(#clip1_22_5676)">
<path d="M382.844 1050.52L400.526 1068.19L424.677 1061.72L431.146 1037.59L413.464 1019.92L389.318 1026.39L382.844 1050.52Z" fill="#FD532F" fill-opacity="0.4"/>
<path d="M746.854 1254.74L764.526 1272.42L788.682 1265.95L795.151 1241.81L777.474 1224.14L753.323 1230.61L746.854 1254.74Z" fill="#FD532F" fill-opacity="0.4"/>
<path d="M88.7135 902.839L106.391 920.51L130.547 914.047L137.01 889.906L119.333 872.234L95.1875 878.708L88.7135 902.839Z" fill="#FD532F" fill-opacity="0.4"/>
<path d="M941.464 1212.24L959.141 1229.91L983.286 1223.44L989.76 1199.3L972.083 1181.64L947.938 1188.1L941.464 1212.24Z" fill="#FD532F" fill-opacity="0.4"/>
<path d="M974.083 1312.53L980.557 1288.39L1000.01 1283.19V1327.99L991.766 1330.2L974.083 1312.53Z" fill="#FD532F" fill-opacity="0.4"/>
<path d="M905.188 940.62L922.87 958.286L947.021 951.828L953.49 927.688L935.807 910.016L911.661 916.484L905.188 940.62Z" fill="#FD532F" fill-opacity="0.4"/>
<path d="M599.844 918.635L617.526 936.307L641.677 929.833L648.146 905.693L630.464 888.026L606.318 894.495L599.844 918.635Z" fill="#FD532F" fill-opacity="0.4"/>
<path d="M852.797 1018.67L861.932 1027.79L874.401 1024.45L877.745 1011.99L868.615 1002.87L856.135 1006.21L852.797 1018.67Z" fill="#FD532F" fill-opacity="0.4"/>
<path d="M591.885 1035.71L601.021 1044.84L613.49 1041.5L616.833 1029.04L607.703 1019.91L595.234 1023.25L591.885 1035.71Z" fill="#FD532F" fill-opacity="0.4"/>
<path d="M618.708 1360.97L627.839 1370.1L640.307 1366.76L643.656 1354.3L634.526 1345.17L622.047 1348.51L618.708 1360.97Z" fill="#FD532F" fill-opacity="0.4"/>
<path d="M515.891 864.031L525.021 873.156L537.49 869.818L540.833 857.354L531.703 848.229L519.234 851.568L515.891 864.031Z" fill="#FD532F" fill-opacity="0.4"/>
<path d="M541.469 1224.88L550.604 1233.99L563.073 1230.65L566.417 1218.19L557.286 1209.06L544.818 1212.4L541.469 1224.88Z" fill="#FD532F" fill-opacity="0.4"/>
<path d="M-0.00521851 845.167L9.11978 854.292L21.5937 850.953L24.9375 838.479L15.8021 829.359L3.33332 832.698L-0.00521851 845.167Z" fill="#FD532F" fill-opacity="0.4"/>
<mask id="mask10_22_5676" style="mask-type:luminance" maskUnits="userSpaceOnUse" x="877" y="1405" width="27" height="27">
<path d="M877.333 1405.33H904V1431.33H877.333V1405.33Z" fill="white"/>
</mask>
<g mask="url(#mask10_22_5676)">
<path d="M878.255 1422.11L887.38 1431.24L899.854 1427.89L903.193 1415.43L894.063 1406.31L881.594 1409.65L878.255 1422.11Z" fill="#FD532F" fill-opacity="0.4"/>
</g>
<path d="M198.187 851.568L207.312 860.693L219.792 857.354L223.13 844.891L214 835.766L201.531 839.104L198.187 851.568Z" fill="#FD532F" fill-opacity="0.4"/>
<path d="M955.604 870.63L964.734 879.76L977.203 876.417L980.547 863.953L971.417 854.828L958.948 858.167L955.604 870.63Z" fill="#FD532F" fill-opacity="0.4"/>
<path d="M458.812 937.495L467.943 946.62L480.411 943.281L483.75 930.818L474.625 921.693L462.156 925.031L458.812 937.495Z" fill="#FD532F" fill-opacity="0.4"/>
<path d="M827.182 876.51L876.547 925.844L858.495 993.239L791.052 1011.33L741.693 961.989L759.755 894.594L827.182 876.51ZM873.193 926.745L826.286 879.87L762.214 897.026L745.047 961.062L791.948 1007.97L856.016 990.807L873.193 926.745Z" fill="#FD532F" fill-opacity="0.4"/>
<mask id="mask11_22_5676" style="mask-type:luminance" maskUnits="userSpaceOnUse" x="821" y="808" width="107" height="35">
<path d="M821.333 808.333H928V842.667H821.333V808.333Z" fill="white"/>
</mask>
<g mask="url(#mask11_22_5676)">
<path d="M924.099 808.422L920.589 821.51L856.521 838.656L826.229 808.422H821.974L855.589 842.016L923.031 823.969L927.219 808.422H924.099Z" fill="#FD532F" fill-opacity="0.4"/>
</g>
<mask id="mask12_22_5676" style="mask-type:luminance" maskUnits="userSpaceOnUse" x="282" y="808" width="134" height="79">
<path d="M282.667 808.333H416V886.667H282.667V808.333Z" fill="white"/>
</mask>
<g mask="url(#mask12_22_5676)">
<path d="M412.51 808.422L397.047 866.021L345.464 879.833L343.5 880.359L332.974 883.182L286.099 836.302L293.573 808.422H290.469L282.745 837.203L332.104 886.542L399.531 868.479L415.661 808.422H412.51Z" fill="#FD532F" fill-opacity="0.4"/>
</g>
<path d="M503.979 934.688L553.339 984.021L535.276 1051.42L467.849 1069.48L418.484 1020.14L436.557 952.745L503.979 934.688ZM549.984 984.922L503.083 938.047L439.031 955.203L421.87 1019.24L468.771 1066.12L532.818 1048.95L549.984 984.922Z" fill="#FD532F" fill-opacity="0.4"/>
<path d="M525.203 811.109L484.198 822.089L473.198 811.109H468.938L480.036 822.188L482.495 824.641L483.307 825.453L536.844 811.109H525.203Z" fill="#FD532F" fill-opacity="0.4"/>
<path d="M883.37 1238.67L932.729 1288L914.667 1355.4L847.203 1373.46L797.844 1324.13L815.911 1256.73L883.37 1238.67ZM929.375 1288.9L882.469 1242.03L818.401 1259.19L801.234 1323.22L848.104 1370.1L912.172 1352.95L929.375 1288.9Z" fill="#FD532F" fill-opacity="0.4"/>
<path d="M365.474 965.021L392.594 957.76L399.859 930.656L380.01 910.812L352.891 918.078L345.625 945.182L365.474 965.021ZM353.88 919.068L379.646 912.167L398.505 931.016L391.604 956.771L365.839 963.672L346.974 944.812L353.88 919.068Z" fill="#FD532F" fill-opacity="0.4"/>
<path d="M345.786 943.031L365.635 962.87L358.365 989.969L331.26 997.219L311.406 977.375L318.703 950.286L345.786 943.031ZM364.286 963.229L345.464 944.417L319.698 951.312L312.76 977.062L331.615 995.875L357.38 988.974L364.286 963.229Z" fill="#FD532F" fill-opacity="0.4"/>
<path d="M1000.01 1023.08V1018.82L978.083 996.906L978.401 995.724L995.255 932.87L1000.01 931.604V928.479L992.792 930.411L975.943 993.265L975.042 996.625L974.724 997.807L1000.01 1023.08Z" fill="#FD532F" fill-opacity="0.4"/>
<path d="M938.99 1127.24L1000.01 1110.91V1107.79L939.891 1123.91L892.99 1077.03L910.156 1012.99L974.229 995.838L975.042 996.651L1000.01 1021.6V1017.34L978.401 995.75L975.13 992.479L907.698 1010.54L889.625 1077.93L938.99 1127.24Z" fill="#FD532F" fill-opacity="0.4"/>
<path d="M713.297 1066.38L762.656 1115.71L744.594 1183.11L677.167 1201.17L627.802 1151.83L645.865 1084.44L713.297 1066.38ZM759.302 1116.61L712.396 1069.74L648.328 1086.9L631.156 1150.93L678.068 1197.81L742.156 1180.64L759.302 1116.61Z" fill="#FD532F" fill-opacity="0.4"/>
<path d="M827.182 1096.55L876.547 1145.88L858.495 1213.28L791.068 1231.34L741.693 1181.98L759.755 1114.59L827.182 1096.55ZM873.193 1146.78L826.286 1099.91L762.214 1117.07L745.047 1181.1L791.948 1227.98L856.016 1210.82L873.193 1146.78Z" fill="#FD532F" fill-opacity="0.4"/>
<mask id="mask13_22_5676" style="mask-type:luminance" maskUnits="userSpaceOnUse" x="44" y="808" width="848" height="452">
<path d="M44 808.333H892V1260H44V808.333Z" fill="white"/>
</mask>
<g mask="url(#mask13_22_5676)">
<mask id="mask14_22_5676" style="mask-type:luminance" maskUnits="userSpaceOnUse" x="-100" y="520" width="1200" height="1200">
<path d="M1100 520H-100V1720H1100V520Z" fill="black" fill-opacity="0.32"/>
</mask>
<g mask="url(#mask14_22_5676)">
<mask id="mask15_22_5676" style="mask-type:luminance" maskUnits="userSpaceOnUse" x="44" y="808" width="848" height="452">
<path d="M892 808H44V1260H892V808Z" fill="white"/>
</mask>
<g mask="url(#mask15_22_5676)">
<path d="M833.255 846.276L773.427 862.292L757.661 921.094L698.828 936.849L682.938 996.136L682.802 996.625L726.594 1040.39L786.422 1024.38L802.182 965.573L861.016 949.818L876.911 890.526L877.042 890.032L833.255 846.276ZM784.99 1022.94L727.135 1038.43L684.786 996.104L700.286 938.282L758.141 922.787L800.49 965.115L784.99 1022.94ZM859.604 948.36L801.75 963.854L780.573 942.688L759.396 921.516L774.901 863.698L832.75 848.203L875.099 890.532L859.604 948.36Z" fill="#FD532F" fill-opacity="0.6"/>
<mask id="mask16_22_5676" style="mask-type:luminance" maskUnits="userSpaceOnUse" x="669" y="808" width="119" height="71">
<path d="M669.333 808.333H788V878.667H669.333V808.333Z" fill="white"/>
</mask>
<g mask="url(#mask16_22_5676)">
<path d="M785.755 808.422L771.781 860.615L713.927 876.104L671.578 833.776L678.339 808.422H676.526L669.734 833.812L669.609 834.302L713.391 878.062L773.219 862.042L787.578 808.422H785.755Z" fill="#FD532F" fill-opacity="0.6"/>
</g>
<path d="M699.854 1138.98L640.026 1155L624.125 1214.29L624 1214.78L667.781 1258.57L727.609 1242.56L743.505 1183.27L743.635 1182.78L699.854 1138.98ZM726.177 1241.1L668.323 1256.6L625.974 1214.27L641.458 1156.45L699.307 1140.96L741.656 1183.29L726.177 1241.1Z" fill="#FD532F" fill-opacity="0.6"/>
<mask id="mask17_22_5676" style="mask-type:luminance" maskUnits="userSpaceOnUse" x="770" y="1046" width="121" height="121">
<path d="M770.667 1046.67H890.88V1166.67H770.667V1046.67Z" fill="white"/>
</mask>
<g mask="url(#mask17_22_5676)">
<path d="M846.943 1046.85L787.115 1062.86L771.234 1122.18L771.099 1122.67L814.885 1166.43L874.714 1150.42L890.604 1091.13L890.734 1090.64L846.943 1046.85ZM873.266 1148.97L815.417 1164.46L773.063 1122.14L788.583 1064.3L846.396 1048.8L888.745 1091.13L873.266 1148.97Z" fill="#FD532F" fill-opacity="0.6"/>
</g>
<path d="M665.167 1014.28L606.333 1030.04L563.984 987.709L579.609 929.401L579.745 928.907L535.964 885.151L476.135 901.167L460.307 960.209L401.229 976.026L385.339 1035.32L385.203 1035.81L428.995 1079.57L488.312 1063.69L531.135 1106.49L589.969 1090.73L633.094 1133.83L692.922 1117.81L708.818 1058.53L708.948 1058.04L665.167 1014.28ZM477.615 902.604L535.474 887.11L577.823 929.438L562.365 987.177L504.422 1002.69L462.135 960.427L477.615 902.604ZM487.417 1062.13L429.562 1077.62L387.214 1035.29L402.714 977.469L460.542 961.979L502.891 1004.31L487.417 1062.13ZM589.594 1089.04L531.745 1104.54L489.391 1062.21L504.854 1004.47L562.719 988.953L605.068 1031.22L589.594 1089.04ZM691.552 1116.39L633.698 1131.88L591.349 1089.55L606.849 1031.73L664.703 1016.24L707.052 1058.57L691.552 1116.39Z" fill="#FD532F" fill-opacity="0.6"/>
<mask id="mask18_22_5676" style="mask-type:luminance" maskUnits="userSpaceOnUse" x="45" y="808" width="317" height="91">
<path d="M45.3333 808.333H361.333V898.667H45.3333V808.333Z" fill="white"/>
</mask>
<g mask="url(#mask18_22_5676)">
<path d="M346.839 808.422H344.354L358.911 822.974L343.526 880.359L343.411 880.797L329.969 884.396L285.599 896.286L243.25 853.964L255.417 808.422H253.536L241.438 853.438L183.583 868.943L141.234 826.615L146.135 808.422H144.167L139.312 826.562L81.4583 842.016L47.8489 808.422H45.3698L80.9375 843.984L140.26 828.094L183.089 870.906L241.911 855.151L285.036 898.25L331.422 885.833L344.865 882.234L345.536 879.844L360.792 822.948L360.922 822.458L346.839 808.422Z" fill="#FD532F" fill-opacity="0.6"/>
</g>
<mask id="mask19_22_5676" style="mask-type:luminance" maskUnits="userSpaceOnUse" x="421" y="808" width="122" height="75">
<path d="M421.333 808.333H542.667V882.667H421.333V808.333Z" fill="white"/>
</mask>
<g mask="url(#mask19_22_5676)">
<path d="M539.729 808.422L524.839 863.964L466.99 879.458L424.635 837.13L432.307 808.422H430.49L422.781 837.167L422.656 837.656L466.437 881.411L526.266 865.396L541.542 808.422H539.729Z" fill="#FD532F" fill-opacity="0.6"/>
</g>
</g>
</g>
</g>
</g>
<defs>
<clipPath id="clip0_22_5676">
<rect width="1000" height="1000" fill="white" transform="matrix(1 0 0 -1 0 1000)"/>
</clipPath>
<clipPath id="clip1_22_5676">
<rect width="1000" height="1000" fill="white" transform="translate(0 620)"/>
</clipPath>
</defs>
</svg>
